<?xml version="1.0" encoding="utf-8"?>
<!-- Generator: Adobe Illustrator 16.0.0, SVG Export Plug-In . SVG Version: 6.00 Build 0)  -->
<!DOCTYPE svg PUBLIC "-//W3C//DTD SVG 1.1//EN" "http://www.w3.org/Graphics/SVG/1.1/DTD/svg11.dtd">
<svg version="1.1" id="图层_1" xmlns="http://www.w3.org/2000/svg" xmlns:xlink="http://www.w3.org/1999/xlink" x="0px" y="0px"
	 width="73px" height="68px" viewBox="0 0 73 68" enable-background="new 0 0 73 68" xml:space="preserve">
<g display="none">
	<g display="inline">
		<path fill="#455FA8" d="M56.143,5.5H16.857C12.518,5.5,9,8.689,9,12.625v42.75c0,3.935,3.518,7.125,7.857,7.125h39.285
			c4.34,0,7.857-3.19,7.857-7.125v-42.75C64,8.689,60.482,5.5,56.143,5.5z M22.75,19.75h11.785c1.086,0,1.965,0.798,1.965,1.781
			s-0.879,1.781-1.965,1.781H22.75c-1.085,0-1.965-0.798-1.965-1.781S21.665,19.75,22.75,19.75z M50.25,44.688h-27.5
			c-1.085,0-1.965-0.798-1.965-1.781s0.88-1.781,1.965-1.781h27.5c1.084,0,1.964,0.798,1.964,1.781S51.334,44.688,50.25,44.688z
			 M50.25,34h-27.5c-1.085,0-1.965-0.798-1.965-1.781s0.88-1.781,1.965-1.781h27.5c1.084,0,1.964,0.798,1.964,1.781
			S51.334,34,50.25,34z"/>
	</g>
</g>
<path display="none" fill="#96999B" d="M56.143,62.5H16.857C12.518,62.5,9,59.309,9,55.375v-42.75C9,8.689,12.518,5.5,16.857,5.5
	h39.285C60.482,5.5,64,8.689,64,12.625v42.75C64,59.309,60.482,62.5,56.143,62.5L56.143,62.5z M61.071,12.625
	c0-0.944-0.414-1.852-1.151-2.52C59.184,9.438,58.042,8.5,57,8.5H16c-2.17,0-4.071,2.157-4.071,4.125v42.75
	c0,0.945,0.413,1.85,1.15,2.518C13.816,58.563,14.958,59.5,16,59.5h41c1.042,0,2.184-0.938,2.92-1.607
	c0.737-0.668,1.151-1.572,1.151-2.518V12.625z M50.25,44.688h-27.5c-1.085,0-1.965-0.799-1.965-1.781
	c0-0.984,0.88-1.781,1.965-1.781h27.5c1.084,0,1.964,0.797,1.964,1.781C52.214,43.889,51.334,44.688,50.25,44.688L50.25,44.688z
	 M50.25,34h-27.5c-1.085,0-1.965-0.798-1.965-1.782s0.88-1.781,1.965-1.781h27.5c1.084,0,1.964,0.798,1.964,1.781
	S51.334,34,50.25,34L50.25,34z M34.535,23.313H22.75c-1.085,0-1.965-0.798-1.965-1.781s0.88-1.781,1.965-1.781h11.785
	c1.086,0,1.965,0.798,1.965,1.781S35.621,23.313,34.535,23.313L34.535,23.313z M34.535,23.313"/>
<g>
	<g>
		<path fill="#455FA8" d="M36.5,5.164C20.207,5.164,7,18.372,7,34.664s13.207,29.5,29.5,29.5c16.292,0,29.5-13.208,29.5-29.5
			S52.792,5.164,36.5,5.164z M29.912,45.207c0,0.625-0.513,1.14-1.135,1.14h-4.941c-0.621,0-1.135-0.515-1.135-1.14v-8.449
			c0-0.624,0.514-1.139,1.135-1.139h4.941c0.622,0,1.135,0.515,1.135,1.139V45.207z M39.758,45.207c0,0.625-0.513,1.14-1.135,1.14
			h-4.941c-0.622,0-1.135-0.515-1.135-1.14V21.402c0-0.625,0.513-1.14,1.135-1.14h4.941c0.622,0,1.135,0.515,1.135,1.14V45.207z
			 M49.64,45.207c0,0.625-0.513,1.14-1.135,1.14h-4.94c-0.623,0-1.135-0.515-1.135-1.14V29.264c0-0.625,0.512-1.139,1.135-1.139
			h4.94c0.622,0,1.135,0.514,1.135,1.139V45.207z"/>
	</g>
</g>
<g display="none">
	<g display="inline">
		<path fill="#96999B" d="M36.5,5.164C20.207,5.164,7,18.372,7,34.664s13.207,29.5,29.5,29.5c16.292,0,29.5-13.208,29.5-29.5
			S52.792,5.164,36.5,5.164z M36.5,61.164c-14.636,0-26.5-11.864-26.5-26.5s11.864-26.5,26.5-26.5S63,20.028,63,34.664
			S51.136,61.164,36.5,61.164z M28.777,35.619h-4.941c-0.621,0-1.135,0.515-1.135,1.139v8.449c0,0.625,0.514,1.14,1.135,1.14h4.941
			c0.622,0,1.135-0.515,1.135-1.14v-8.449C29.912,36.134,29.399,35.619,28.777,35.619z M38.623,20.263h-4.941
			c-0.622,0-1.135,0.515-1.135,1.14v23.805c0,0.625,0.513,1.14,1.135,1.14h4.941c0.622,0,1.135-0.515,1.135-1.14V21.402
			C39.758,20.777,39.245,20.263,38.623,20.263z M48.505,28.125h-4.94c-0.623,0-1.135,0.514-1.135,1.139v15.943
			c0,0.625,0.512,1.14,1.135,1.14h4.94c0.622,0,1.135-0.515,1.135-1.14V29.264C49.64,28.639,49.127,28.125,48.505,28.125z"/>
	</g>
</g>
<g display="none">
	<g display="inline">
		<path fill="#455FA8" d="M61.271,28.342c0-9.862-5.978-18.753-15.146-22.526c-9.168-3.774-19.721-1.688-26.737,5.285
			c-7.018,6.974-9.116,17.461-5.318,26.572c1.479,3.548,3.746,6.606,6.54,9.03c-0.926,0.97-2.129,2.686-2.285,3.166
			c-1.102,2.587-2.681,7.219-2.674,10.026c0.008,0.84,0.065,1.678,0.174,2.51c0.116,0.935,0.914,1.636,1.861,1.636h38.159
			c0.909-0.033,1.664-0.71,1.79-1.606c0.737-5.721-0.962-11.453-4.622-15.854C58.076,42.114,61.271,35.601,61.271,28.342z
			 M45.722,37.271c-2.383,2.368-5.616,3.697-8.985,3.693c-6.995-0.024-12.65-5.671-12.643-12.622c0-1.029,0.352-1.501,1.389-1.501
			c1.035,0,1.469,0.472,1.469,1.501c0,4.896,4.888,9.75,9.814,9.75c4.926,0,9.813-4.854,9.813-9.75c0-1.029,0.235-1.501,1.271-1.501
			s1.586,0.472,1.586,1.501C49.44,31.69,48.104,34.903,45.722,37.271z"/>
	</g>
</g>
<g display="none">
	<g display="inline">
		<path fill="#96999B" d="M61.301,28.245c0-9.862-5.978-18.753-15.146-22.526c-9.168-3.774-19.721-1.688-26.737,5.285
			c-7.018,6.974-9.116,17.461-5.318,26.573c3.797,9.111,12.743,15.051,22.667,15.051c5.128,0,9.888-1.565,13.824-4.239
			c2.813,3.254,4.394,8.066,4.39,12.296v0.459H18.552v-0.459c-0.013-2.313,0.443-5.492,1.343-7.625
			c0.327-0.625,0.273-1.379-0.14-1.951c-0.413-0.57-0.221-0.863-0.92-0.754s-1.277,0.6-1.495,1.27
			c-1.102,2.586-1.667,5.367-1.66,8.176c0.008,0.84,0.065,1.678,0.174,2.51c0.116,0.934,0.914,1.635,1.861,1.635h38.159
			c0.909-0.033,1.664-0.709,1.79-1.605c0.737-5.721-0.963-11.453-4.623-15.854C58.105,42.018,61.301,35.503,61.301,28.245z
			 M36.733,49.752c-12.094,0.02-21.914-9.67-21.937-21.645C14.774,16.132,24.559,6.406,36.652,6.38
			C48.748,6.373,58.566,16.061,58.6,28.037C58.616,40.012,48.828,49.734,36.733,49.752z M47.88,26.744
			c-1.036,0-1.271,0.472-1.271,1.501c0,4.896-4.888,9.75-9.813,9.75c-4.927,0-9.814-4.854-9.814-9.75
			c0-1.029-0.434-1.501-1.469-1.501c-1.037,0-1.389,0.472-1.389,1.501c-0.008,6.951,5.647,12.597,12.643,12.623
			c3.369,0.004,6.603-1.326,8.985-3.693c2.382-2.368,3.719-5.581,3.715-8.929C49.466,27.215,48.916,26.744,47.88,26.744z"/>
	</g>
</g>
<g display="none">
	<g display="inline">
		<path fill="#297EC4" d="M25.732,25.898c0.945,0,1.458-0.465,1.832-0.804c0.129-0.117,0.254-0.229,0.41-0.34
			c0.965-0.082,1.633-0.73,2.043-1.128c0.042-0.041,0.092-0.089,0.137-0.131c0.172-0.03,0.318-0.076,0.43-0.111
			c0.027-0.009,0.057-0.02,0.085-0.027c1.112-0.02,2.204-0.563,3.013-1.458c0.195,0.078,0.42,0.133,0.674,0.133
			c0.962,0,1.805-0.265,2.455-0.76c0.172,0.027,0.353,0.044,0.542,0.044c2.545,0,4.616-2.038,4.616-4.543
			c0-0.111-0.004-0.222-0.012-0.332c1.19-0.521,2.068-1.647,2.108-2.896c1.705-0.752,2.931-2.556,2.931-4.503
			c0-2.557-2.137-5.417-4.996-5.417c-0.961,0-1.826,0.374-2.457,0.648c-0.174,0.075-0.408,0.176-0.519,0.209
			c-0.322-0.011-0.749-0.162-1.202-0.322c-0.707-0.251-1.51-0.535-2.471-0.535c-3.629,0-6.695,3.143-6.695,6.862
			c0,0.385,0.066,0.786,0.131,1.174c0.01,0.055,0.019,0.111,0.028,0.166c-0.699,0.584-1.724,1.521-1.724,2.996
			c0,0.708,0.134,1.308,0.375,1.761c-0.168,0.071-0.315,0.166-0.443,0.284c-1.813,0.255-3.234,1.759-3.377,3.618
			c-0.719,0.564-1.163,1.438-1.163,2.382C22.483,24.482,24.002,25.898,25.732,25.898z M50.757,35.51
			c0.704,0,1.087-0.353,1.366-0.609c0.096-0.089,0.188-0.173,0.305-0.258c0.719-0.062,1.217-0.553,1.522-0.854
			c0.031-0.031,0.069-0.067,0.103-0.1c0.127-0.022,0.236-0.058,0.318-0.085c0.021-0.007,0.043-0.015,0.064-0.021
			c0.828-0.015,1.642-0.427,2.244-1.104c0.146,0.059,0.313,0.101,0.502,0.101c0.717,0,1.346-0.201,1.83-0.576
			c0.127,0.021,0.262,0.033,0.404,0.033c1.896,0,3.439-1.545,3.439-3.443c0-0.085-0.004-0.169-0.01-0.252
			c0.888-0.395,1.541-1.249,1.571-2.196c1.271-0.57,2.184-1.938,2.184-3.413c0-1.938-1.592-4.106-3.723-4.106
			c-0.716,0-1.36,0.284-1.831,0.491c-0.129,0.057-0.303,0.134-0.386,0.159c-0.24-0.009-0.559-0.123-0.896-0.245
			c-0.527-0.189-1.125-0.405-1.842-0.405c-2.704,0-4.988,2.383-4.988,5.202c0,0.292,0.05,0.596,0.098,0.89
			c0.008,0.041,0.014,0.084,0.021,0.126c-0.521,0.442-1.285,1.153-1.285,2.271c0,0.536,0.1,0.991,0.279,1.334
			c-0.125,0.055-0.234,0.127-0.33,0.216c-1.351,0.193-2.409,1.333-2.516,2.743c-0.536,0.428-0.867,1.09-0.867,1.806
			C48.336,34.437,49.467,35.51,50.757,35.51z M70.938,64.001c-0.104-0.104-10.377-10.537-10.377-25.92
			c0-0.525-0.423-0.95-0.945-0.95h-14.65c-0.521,0-0.945,0.425-0.945,0.95c0,2.203-0.217,4.302-0.579,6.287
			c3.991,11.737,11.274,19.016,11.376,19.114c0.364,0.358,0.475,0.897,0.279,1.367c-0.197,0.469-0.66,0.775-1.174,0.775h16.35
			c0.383,0,0.727-0.232,0.873-0.588C71.291,64.681,71.209,64.272,70.938,64.001z M38.89,29.29c0-0.692-0.567-1.253-1.269-1.253
			H17.959c-0.701,0-1.269,0.561-1.269,1.253c0,20.253-13.787,34.057-13.926,34.193C2.4,63.842,2.291,64.381,2.487,64.85
			c0.196,0.47,0.659,0.775,1.172,0.775h48.263c0.514,0,0.977-0.307,1.174-0.775c0.195-0.47,0.085-1.009-0.279-1.367
			C52.677,63.347,38.89,49.583,38.89,29.29z"/>
	</g>
</g>
<g display="none">
	<g display="inline">
		<path fill="#96999B" d="M50.757,35.51c0.704,0,1.087-0.353,1.366-0.609c0.096-0.089,0.188-0.173,0.305-0.258
			c0.719-0.062,1.217-0.553,1.522-0.854c0.031-0.031,0.069-0.067,0.103-0.1c0.127-0.022,0.236-0.058,0.318-0.085
			c0.021-0.007,0.043-0.015,0.064-0.021c0.828-0.015,1.642-0.427,2.244-1.104c0.146,0.059,0.313,0.101,0.502,0.101
			c0.717,0,1.346-0.201,1.83-0.576c0.127,0.021,0.262,0.033,0.404,0.033c1.896,0,3.439-1.545,3.439-3.443
			c0-0.085-0.004-0.169-0.01-0.252c0.888-0.395,1.541-1.249,1.571-2.196c1.271-0.57,2.184-1.938,2.184-3.413
			c0-1.938-1.592-4.106-3.723-4.106c-0.716,0-1.36,0.284-1.831,0.491c-0.129,0.057-0.303,0.134-0.386,0.159
			c-0.24-0.009-0.559-0.123-0.896-0.245c-0.527-0.189-1.125-0.405-1.842-0.405c-2.704,0-4.988,2.383-4.988,5.202
			c0,0.292,0.05,0.596,0.098,0.89c0.008,0.041,0.014,0.084,0.021,0.126c-0.521,0.442-1.285,1.153-1.285,2.271
			c0,0.536,0.1,0.991,0.279,1.334c-0.125,0.055-0.234,0.127-0.33,0.216c-1.351,0.193-2.409,1.333-2.516,2.743
			c-0.536,0.428-0.867,1.09-0.867,1.806C48.336,34.437,49.467,35.51,50.757,35.51z M50.479,32.838
			c0.419-0.152,0.676-0.578,0.615-1.021c-0.008-0.052-0.01-0.122-0.01-0.176c0-0.589,0.486-1.105,1.041-1.105
			c0.244,0,0.467-0.085,0.668-0.257c0.062-0.038,0.119-0.085,0.17-0.137c0.607-0.25,0.869-0.851,1.078-1.714
			c0.068-0.283,0.004-0.582-0.176-0.812c-0.051-0.064-0.108-0.121-0.172-0.17c-0.018-0.085-0.033-0.203-0.033-0.332
			c0-0.304,0.392-0.633,0.705-0.897c0.135-0.113,0.254-0.216,0.348-0.309c0.178-0.178,0.277-0.422,0.277-0.675
			c0-0.263-0.047-0.548-0.092-0.823c-0.033-0.209-0.072-0.445-0.072-0.583c0-1.759,1.447-3.303,3.098-3.303
			c0.387,0,0.783,0.143,1.204,0.294c0.485,0.175,0.989,0.356,1.579,0.356c0.375,0,0.727-0.155,1.1-0.319
			c0.354-0.156,0.752-0.332,1.071-0.332c0.892,0,1.833,1.135,1.833,2.207c0,0.918-0.711,1.659-1.376,1.775
			c-0.452,0.079-0.783,0.474-0.783,0.936c0,0.076-0.005,0.156-0.009,0.24c-0.008,0.128-0.015,0.261-0.015,0.396
			c0,0.287-0.384,0.591-0.761,0.594c-0.506-0.033-0.957,0.361-0.995,0.879c-0.001,0.011-0.002,0.021-0.002,0.033
			c-0.006,0.137,0.017,0.277,0.073,0.411c0.082,0.192,0.121,0.388,0.121,0.598c0,0.852-0.695,1.544-1.549,1.544
			c-0.044,0-0.094-0.006-0.148-0.017c-0.074-0.049-0.158-0.088-0.248-0.114c-0.389-0.115-0.807,0.031-1.039,0.364
			c-0.125,0.178-0.343,0.279-0.648,0.304c-0.008-0.006-0.018-0.013-0.025-0.019c-0.199-0.145-0.499-0.362-0.922-0.362
			c-0.355,0-0.681,0.2-0.842,0.518c-0.221,0.435-0.662,0.873-1.153,0.873c-0.252,0-0.46,0.067-0.598,0.111
			c-0.018,0.007-0.036,0.013-0.054,0.018c-0.504,0.021-0.84,0.353-1.111,0.62c-0.102,0.101-0.289,0.286-0.378,0.314
			c-0.19-0.019-0.388,0.021-0.56,0.119c-0.406,0.231-0.658,0.463-0.842,0.632c-0.039,0.036-0.088,0.081-0.123,0.11
			c-0.246-0.019-0.498-0.238-0.498-0.396C50.227,33.026,50.354,32.883,50.479,32.838z M70.938,64.001
			c-0.104-0.104-10.377-10.537-10.377-25.92c0-0.525-0.423-0.95-0.945-0.95h-14.65c-0.521,0-0.945,0.425-0.945,0.95
			c0,2.203-0.217,4.302-0.579,6.287c0.384,1.132,0.797,2.225,1.233,3.271c0.687-2.636,1.146-5.516,1.225-8.607h12.784
			c0.312,12.242,6.565,21.182,9.474,24.694H54.999c0.206,0.336,0.252,0.75,0.097,1.124c-0.197,0.469-0.66,0.775-1.174,0.775h16.35
			c0.383,0,0.727-0.232,0.873-0.588C71.291,64.681,71.209,64.272,70.938,64.001z M25.732,25.898c0.945,0,1.458-0.465,1.832-0.804
			c0.129-0.117,0.254-0.229,0.41-0.34c0.965-0.082,1.633-0.73,2.043-1.128c0.042-0.041,0.092-0.089,0.137-0.131
			c0.172-0.03,0.318-0.076,0.43-0.111c0.027-0.009,0.057-0.02,0.085-0.027c1.112-0.02,2.204-0.563,3.013-1.458
			c0.195,0.078,0.42,0.133,0.674,0.133c0.962,0,1.805-0.265,2.455-0.76c0.172,0.027,0.353,0.044,0.542,0.044
			c2.545,0,4.616-2.038,4.616-4.543c0-0.111-0.004-0.222-0.012-0.332c1.19-0.521,2.068-1.647,2.108-2.896
			c1.705-0.752,2.931-2.556,2.931-4.503c0-2.557-2.137-5.417-4.996-5.417c-0.961,0-1.826,0.374-2.457,0.648
			c-0.174,0.075-0.408,0.176-0.519,0.209c-0.322-0.011-0.749-0.162-1.202-0.322c-0.707-0.251-1.51-0.535-2.471-0.535
			c-3.629,0-6.695,3.143-6.695,6.862c0,0.385,0.066,0.786,0.131,1.174c0.01,0.055,0.019,0.111,0.028,0.166
			c-0.699,0.584-1.724,1.521-1.724,2.996c0,0.708,0.134,1.308,0.375,1.761c-0.168,0.071-0.315,0.166-0.443,0.284
			c-1.813,0.255-3.234,1.759-3.377,3.618c-0.719,0.564-1.163,1.438-1.163,2.382C22.483,24.482,24.002,25.898,25.732,25.898z
			 M25.358,22.374c0.562-0.2,0.907-0.762,0.826-1.348c-0.01-0.068-0.013-0.161-0.013-0.231c0-0.777,0.652-1.459,1.396-1.459
			c0.326,0,0.625-0.112,0.896-0.339c0.082-0.051,0.159-0.111,0.229-0.18c0.814-0.33,1.166-1.122,1.447-2.261
			c0.091-0.374,0.004-0.769-0.236-1.07c-0.068-0.086-0.146-0.16-0.231-0.225c-0.023-0.112-0.044-0.269-0.044-0.438
			c0-0.4,0.525-0.835,0.947-1.184c0.18-0.149,0.34-0.284,0.465-0.407c0.238-0.234,0.373-0.557,0.373-0.89
			c0-0.347-0.063-0.723-0.123-1.087c-0.045-0.275-0.098-0.588-0.098-0.769c0-2.32,1.943-4.356,4.158-4.356
			c0.52,0,1.051,0.188,1.615,0.388c0.652,0.231,1.327,0.47,2.12,0.47c0.503,0,0.976-0.204,1.476-0.421
			C41.035,6.362,41.57,6.13,42,6.13c1.195,0,2.459,1.496,2.459,2.911c0,1.211-0.954,2.188-1.846,2.342
			c-0.607,0.104-1.051,0.625-1.051,1.234c0,0.1-0.008,0.205-0.013,0.317c-0.009,0.168-0.019,0.343-0.019,0.521
			c0,0.379-0.516,0.78-1.022,0.783c-0.679-0.043-1.284,0.478-1.335,1.16c-0.001,0.015-0.002,0.029-0.002,0.043
			c-0.009,0.181,0.023,0.366,0.099,0.544c0.108,0.253,0.161,0.511,0.161,0.788c0,1.123-0.932,2.037-2.078,2.037
			c-0.059,0-0.125-0.009-0.199-0.022c-0.1-0.065-0.213-0.116-0.332-0.151c-0.521-0.152-1.083,0.041-1.396,0.48
			c-0.167,0.234-0.459,0.369-0.869,0.401c-0.012-0.009-0.023-0.017-0.034-0.025c-0.267-0.19-0.67-0.478-1.237-0.478
			c-0.477,0-0.913,0.265-1.129,0.684c-0.297,0.573-0.891,1.151-1.549,1.151c-0.338,0-0.617,0.089-0.802,0.147
			c-0.024,0.008-0.048,0.016-0.072,0.022c-0.677,0.027-1.128,0.465-1.492,0.818c-0.136,0.132-0.388,0.376-0.507,0.414
			c-0.256-0.024-0.52,0.027-0.752,0.157c-0.545,0.305-0.883,0.611-1.129,0.834c-0.053,0.048-0.117,0.106-0.164,0.146
			c-0.331-0.024-0.669-0.314-0.669-0.522C25.021,22.623,25.19,22.434,25.358,22.374z M38.89,29.29c0-0.692-0.567-1.253-1.269-1.253
			H17.959c-0.701,0-1.269,0.561-1.269,1.253c0,20.253-13.787,34.057-13.926,34.193C2.4,63.842,2.291,64.381,2.487,64.85
			c0.196,0.47,0.659,0.775,1.172,0.775h48.263c0.514,0,0.977-0.307,1.174-0.775c0.195-0.47,0.085-1.009-0.279-1.367
			C52.677,63.347,38.89,49.583,38.89,29.29z M6.498,63.119c3.902-4.633,12.295-16.427,12.713-32.575h17.158
			c0.418,16.148,8.812,27.942,12.715,32.575H6.498z"/>
	</g>
</g>
<g display="none">
	<g display="inline">
		<path fill="#455FA8" d="M28.851,47.484c2.289,1.296,4.954,1.325,7.649,1.325c8.118,0,15.74-6.033,15.74-14.356
			c0-3.718-1.374-7.129-3.699-9.756L28.851,47.484z M36.671,19.376c-8.595,0-15.57,6.754-15.57,15.077
			c0,3.95,1.726,7.948,4.579,10.711l19.902-23.06C43.046,20.399,39.981,19.376,36.671,19.376z M54.468,1.5H18.531
			C12.719,1.5,8,6.24,8,12.081v43.837C8,61.759,12.719,66.5,18.531,66.5h35.971c2.805,0,5.472-1.1,7.455-3.127
			C63.939,61.381,65,58.735,65,55.918V12.081C65,6.24,60.281,1.5,54.468,1.5z M36.5,52.5c-10.215,0-18.5-8.094-18.5-18
			c0-9.938,8.318-18,18.5-18S55,24.594,55,34.5C55,44.438,46.715,52.5,36.5,52.5z"/>
	</g>
</g>
<g display="none">
	<g display="inline">
		<path fill="#95989A" d="M54.468,1.5H18.531C12.719,1.5,8,6.24,8,12.081v43.837C8,61.759,12.719,66.5,18.531,66.5h35.971
			c2.805,0,5.472-1.1,7.455-3.127C63.939,61.381,65,58.735,65,55.918V12.081C65,6.24,60.281,1.5,54.468,1.5z M59.938,60.479
			c-1.363,1.313-3.168,3.021-5.083,3.021h-36.71c-3.94,0-7.145-4.085-7.145-7.879V12.378C11,8.585,14.204,4.5,18.145,4.5h36.71
			C58.796,4.5,62,8.585,62,12.378l0.102,42.54C62.102,56.705,61.301,59.167,59.938,60.479z M36.5,16.5c-10.182,0-18.5,8.062-18.5,18
			c0,9.906,8.285,18,18.5,18S55,44.438,55,34.5C55,24.594,46.682,16.5,36.5,16.5z M21.101,34.453c0-8.323,6.976-15.077,15.57-15.077
			c3.311,0,6.375,1.023,8.911,2.729L25.68,45.164C22.826,42.401,21.101,38.403,21.101,34.453z M36.5,48.81
			c-2.695,0-5.36-0.029-7.649-1.325l19.69-22.787c2.325,2.627,3.699,6.038,3.699,9.756C52.24,42.776,44.618,48.81,36.5,48.81z"/>
	</g>
</g>
<path display="none" fill="#455FA8" d="M65.573,52.438V35.091c0-2.761-0.858-5.659-2.56-7.672c-1.701-2.012-4.549-3.356-7.072-3.356
	H40.375v-3.502h-0.098v-0.008h-8.788v4.307H23.51V14.757h2.917V5.5H4.78v9.257h2.918v18.152c0,2.761,0.857,5.176,2.559,7.188
	c1.709,2.013,3.846,3.035,6.37,3.035h14.862v3.509h8.886v-3.501h8.677v9.297h-2.918V62.5H67.78V52.438H65.573 M34.399,23.781h3.065
	v20.445h-3.065V23.781"/>
</svg>
