<?xml version="1.0" encoding="utf-8"?>
<!-- Generator: Adobe Illustrator 16.0.0, SVG Export Plug-In . SVG Version: 6.00 Build 0)  -->
<!DOCTYPE svg PUBLIC "-//W3C//DTD SVG 1.1//EN" "http://www.w3.org/Graphics/SVG/1.1/DTD/svg11.dtd">
<svg version="1.1" id="图层_1" xmlns="http://www.w3.org/2000/svg" xmlns:xlink="http://www.w3.org/1999/xlink" x="0px" y="0px"
	 width="20px" height="20px" viewBox="0 0 20 20" enable-background="new 0 0 20 20" xml:space="preserve">
<path fill="#5870DF" d="M15.792,4.207c-3.196-3.198-8.382-3.198-11.583,0c-3.201,3.198-3.196,8.385,0,11.586
	c3.196,3.199,8.382,3.199,11.583,0C18.992,12.596,18.988,7.405,15.792,4.207z"/>
<path fill="#5870DF" d="M15.958,4.207c-3.197-3.198-8.382-3.198-11.583,0c-3.201,3.198-3.196,8.385,0,11.586
	c3.196,3.199,8.382,3.199,11.583,0C19.158,12.596,19.154,7.405,15.958,4.207z"/>
<path fill="#A0B0E8" d="M10.944,10.005l2.458-2.462c0.261-0.261,0.261-0.683,0-0.945c-0.262-0.261-0.684-0.261-0.943,0L10,9.059
	L7.542,6.599c-0.261-0.261-0.685-0.261-0.944,0c-0.261,0.262-0.261,0.684,0,0.946l2.458,2.461l-2.448,2.45
	c-0.262,0.263-0.262,0.686,0,0.946c0.261,0.26,0.684,0.261,0.944,0L10,10.951l2.447,2.451c0.26,0.261,0.685,0.261,0.944,0
	c0.26-0.262,0.261-0.686,0-0.946L10.944,10.005z"/>
</svg>
