<?xml version="1.0" encoding="utf-8"?>
<!-- Generator: Adobe Illustrator 22.0.0, SVG Export Plug-In . SVG Version: 6.00 Build 0)  -->
<svg version="1.1" id="图层_1" xmlns="http://www.w3.org/2000/svg" xmlns:xlink="http://www.w3.org/1999/xlink" x="0px" y="0px"
	 viewBox="0 0 50 50" style="enable-background:new 0 0 50 50;" xml:space="preserve">
<path class="st0" d="M25,50L3.2,37.5v-25L25,0l21.8,12.5v25L25,50z M39.2,16.4c-0.4-0.7-1.2-0.9-1.9-0.5l-12.7,7.3l-12.6-7.3
	c-0.6-0.4-1.5-0.3-1.9,0.4c-0.4,0.6-0.3,1.5,0.4,1.9c0.1,0,0.1,0.1,0.2,0.1l12.8,7.4c0.1,0.1,0.2,0.1,0.3,0.1v14.4
	c0,0.8,0.6,1.4,1.4,1.4c0.8,0,1.4-0.6,1.4-1.4V25.5c0,0,0-0.1,0-0.1l12.3-7C39.3,18,39.5,17.1,39.2,16.4
	C39.2,16.4,39.2,16.4,39.2,16.4z"/>
</svg>
