<?xml version="1.0" encoding="utf-8"?>
<!-- Generator: Adobe Illustrator 22.0.0, SVG Export Plug-In . SVG Version: 6.00 Build 0)  -->
<svg version="1.1" id="图层_1" xmlns="http://www.w3.org/2000/svg" xmlns:xlink="http://www.w3.org/1999/xlink" x="0px" y="0px"
	 viewBox="0 0 50 50" style="enable-background:new 0 0 50 50;" xml:space="preserve">
<path class="st0" d="M27,26.4h1.7v3.1H27V26.4z M23.9,26.4h1.7v3.1h-1.7V26.4z M20.8,26.4h1.6v3.1h-1.6V26.4z"/>
<path class="st0" d="M42.7,6.2c-0.4,0-0.8,0-1.3,0h0c-10.8,0-15.6-5-15.6-5L24.7,0l-1.1,1.2c0,0.1-5.1,5.4-16.9,5L5.3,6.1v22.5
	c0,5.9,2,14.5,18.9,21l0.5,0.2l0.5-0.2c17-6.6,18.9-15.1,18.9-21V6.1C44.2,6.1,42.7,6.2,42.7,6.2z M21.2,16.6h1.7v5.6
	c0.7-0.7,1.3-1.6,1.8-2.6c0.4-0.8,0.8-1.9,1.2-3.1l1.9,0.4c-0.2,0.5-0.5,1.2-0.8,1.9h5.2v1.6h-5.9c-0.3,0.6-0.8,1.4-1.5,2.3
	c-0.1,0.2-0.3,0.4-0.6,0.9c-0.3-0.3-0.5-0.6-0.6-0.7c-0.2-0.2-0.4-0.3-0.6-0.4v2h-1.7L21.2,16.6L21.2,16.6z M31.2,23.5L30,24.8
	c-0.6-0.6-1.2-1.1-1.6-1.5c-0.5-0.4-1.1-0.9-1.9-1.4l1.2-1.2C28.9,21.5,30.1,22.4,31.2,23.5z M18.1,17.4h1.7v6.7h-1.7V17.4z
	 M32.4,31.6H17.1V30h1.5v-5h12.2v5h1.5L32.4,31.6L32.4,31.6z"/>
</svg>
