<?xml version="1.0" encoding="utf-8"?>
<!-- Generator: Adobe Illustrator 22.0.0, SVG Export Plug-In . SVG Version: 6.00 Build 0)  -->
<svg version="1.1" id="图层_1" xmlns="http://www.w3.org/2000/svg" xmlns:xlink="http://www.w3.org/1999/xlink" x="0px" y="0px"
	 viewBox="0 0 50 50" style="enable-background:new 0 0 50 50;" xml:space="preserve">
<path class="st0" d="M9.4,28.1H3.1c-1.7,0-3.1,1.4-3.1,3.1v15.6C0,48.6,1.4,50,3.1,50h6.2c1.7,0,3.1-1.4,3.1-3.1V31.3
	C12.5,29.5,11.1,28.1,9.4,28.1z M28.1,0h-6.2c-1.7,0-3.1,1.4-3.1,3.1v43.7c0,1.7,1.4,3.1,3.1,3.1h6.2c1.7,0,3.1-1.4,3.1-3.1V3.1
	C31.2,1.4,29.9,0,28.1,0z M46.9,15.6h-6.3c-1.7,0-3.1,1.4-3.1,3.1v28.1c0,1.7,1.4,3.1,3.1,3.1h6.3c1.7,0,3.1-1.4,3.1-3.1V18.8
	C50,17,48.6,15.6,46.9,15.6z"/>
</svg>
